HIERARCHY
ROOT Hips
{
	OFFSET -0.001795 -0.223333 0.028219
	CHANNELS 6 Xposition Yposition Zposition Zrotation Yrotation Xrotation 
	JOINT LeftUpLeg
	{
		OFFSET 0.069520 -0.091406 -0.006815
		CHANNELS 3 Zrotation Yrotation Xrotation
		JOINT LeftLeg
		{
			OFFSET 0.034277 -0.375199 -0.004496
			CHANNELS 3 Zrotation Yrotation Xrotation
			JOINT LeftFoot
			{
				OFFSET -0.013596 -0.397961 -0.043693
				CHANNELS 3 Zrotation Yrotation Xrotation
				JOINT LeftToe
				{
					OFFSET 0.026358 -0.055791 0.119288
					CHANNELS 3 Zrotation Yrotation Xrotation
					End Site
					{
						OFFSET 0.000000 0.000000 0.000000
					}
				}
			}
		}
	}
	JOINT RightUpLeg
	{
		OFFSET -0.067670 -0.090522 -0.004320
		CHANNELS 3 Zrotation Yrotation Xrotation
		JOINT RightLeg
		{
			OFFSET -0.038290 -0.382569 -0.008850
			CHANNELS 3 Zrotation Yrotation Xrotation
			JOINT RightFoot
			{
				OFFSET 0.015774 -0.398415 -0.042312
				CHANNELS 3 Zrotation Yrotation Xrotation
				JOINT RightToe
				{
					OFFSET -0.025372 -0.048144 0.123348
					CHANNELS 3 Zrotation Yrotation Xrotation
					End Site
					{
						OFFSET 0.000000 0.000000 0.000000
					}
				}
			}
		}
	}
	JOINT Spine
	{
		OFFSET -0.002533 0.108963 -0.026696
		CHANNELS 3 Zrotation Yrotation Xrotation
		JOINT Spine1
		{
			OFFSET 0.005487 0.135180 0.001092
			CHANNELS 3 Zrotation Yrotation Xrotation
			JOINT Spine2
			{
				OFFSET 0.001457 0.052922 0.025425
				CHANNELS 3 Zrotation Yrotation Xrotation
				JOINT Neck
				{
					OFFSET -0.002778 0.213870 -0.042857
					CHANNELS 3 Zrotation Yrotation Xrotation
					JOINT Head
					{
						OFFSET 0.005152 0.064970 0.051349
						CHANNELS 3 Zrotation Yrotation Xrotation
						End Site
						{
							OFFSET 0.000000 0.000000 0.000000
						}
					}
				}
				JOINT LeftShoulder
				{
					OFFSET 0.078845 0.121749 -0.034090
					CHANNELS 3 Zrotation Yrotation Xrotation
					JOINT LeftArm
					{
						OFFSET 0.090977 0.030469 -0.008868
						CHANNELS 3 Zrotation Yrotation Xrotation
						JOINT LeftForeArm
						{
							OFFSET 0.259612 -0.012772 -0.027456
							CHANNELS 3 Zrotation Yrotation Xrotation
							JOINT LeftHand
							{
								OFFSET 0.249234 0.008986 -0.001171
								CHANNELS 3 Zrotation Yrotation Xrotation
								End Site
								{
									OFFSET 0.000000 0.000000 0.000000
								}
							}
						}
					}
				}
				JOINT RightShoulder
				{
					OFFSET -0.081759 0.118833 -0.038615
					CHANNELS 3 Zrotation Yrotation Xrotation
					JOINT RightArm
					{
						OFFSET -0.096012 0.032551 -0.009143
						CHANNELS 3 Zrotation Yrotation Xrotation
						JOINT RightForeArm
						{
							OFFSET -0.253742 -0.013329 -0.021401
							CHANNELS 3 Zrotation Yrotation Xrotation
							JOINT RightHand
							{
								OFFSET -0.255298 0.007772 -0.005559
								CHANNELS 3 Zrotation Yrotation Xrotation
								End Site
								{
									OFFSET 0.000000 0.000000 0.000000
								}
							}
						}
					}
				}
			}
		}
	}
}
MOTION
Frames: 16
Frame Time: 0.050000
0.026576 0.889156 -0.031889 2.039421 1.710089 -2.231844 9.677110 -0.288143 -19.054336 -10.470302 2.607021 27.079495 7.350515 15.997541 7.323662 0.000000 0.000000 0.000000 -13.229700 -0.295402 -24.141085 6.227075 -1.513391 37.916863 -4.938268 -13.085362 4.742656 0.000000 0.000000 0.000000 7.792543 -4.916489 41.046126 -6.215912 2.073496 -27.074211 -6.648238 5.092180 24.303448 15.067920 -3.506501 -39.460837 0.000000 0.000000 0.000000 -9.277337 -31.250203 11.990793 -12.239595 -42.875158 -0.066118 15.927703 -23.785563 -2.736931 0.000000 0.000000 0.000000 21.601861 15.675396 9.425438 15.595093 51.224088 1.648020 -14.893823 18.716166 -1.500651 0.000000 0.000000 0.000000 
0.025390 0.888276 -0.030922 1.908577 2.045987 -2.171479 10.029623 -0.262722 -19.983375 -10.677689 2.719594 28.494887 7.165562 15.758809 7.812182 0.000000 0.000000 0.000000 -13.177622 -0.324476 -24.576988 6.447502 -1.703927 38.757213 -5.052440 -13.358300 5.042481 0.000000 0.000000 0.000000 7.850277 -4.988782 40.949052 -6.056252 2.031081 -27.293864 -6.565168 4.899847 24.340007 15.101165 -3.410868 -40.046986 0.000000 0.000000 0.000000 -9.043444 -31.023733 11.854257 -12.127000 -43.076626 -0.098219 16.453582 -23.323956 -2.791059 0.000000 0.000000 0.000000 21.427858 15.715529 9.414387 15.695786 51.506858 1.719759 -14.738157 18.942561 -1.498991 0.000000 0.000000 0.000000 
0.023706 0.887590 -0.030526 1.964566 1.934707 -1.857095 10.146043 -0.254628 -20.914934 -10.731067 2.813471 29.519279 7.179242 15.847815 8.427370 0.000000 0.000000 0.000000 -13.012133 -0.287027 -25.261680 7.245841 -1.970923 36.246511 -7.946129 -19.439788 11.162981 0.000000 0.000000 0.000000 7.610936 -4.909955 41.132868 -5.708436 1.950960 -27.404548 -6.738748 4.976150 24.305954 15.281548 -3.456481 -40.161329 0.000000 0.000000 0.000000 -8.194546 -31.096963 11.722536 -11.264547 -43.401887 -0.352987 17.437463 -22.678818 -2.919107 0.000000 0.000000 0.000000 21.281758 15.966853 9.546540 14.898001 52.050351 1.464690 -15.209998 18.868182 -1.560114 0.000000 0.000000 0.000000 
0.021655 0.886235 -0.030113 1.851612 1.996845 -1.622472 10.773795 -0.161664 -21.804833 -11.286240 3.079684 30.525308 7.104703 15.779780 8.870748 0.000000 0.000000 0.000000 -12.874217 -0.267053 -25.691316 8.088337 -2.229418 33.388987 -12.182274 -25.824702 18.948627 0.000000 0.000000 0.000000 7.597512 -4.954281 41.333613 -5.881585 1.981094 -27.438815 -6.694913 4.687192 24.390391 15.284020 -3.533371 -39.943708 0.000000 0.000000 0.000000 -7.483336 -31.311368 11.710084 -9.710208 -44.295027 -0.796148 19.149763 -21.682920 -3.123813 0.000000 0.000000 0.000000 20.642800 16.315254 9.554486 14.653106 53.377592 1.510438 -16.176198 17.566777 -1.554285 0.000000 0.000000 0.000000 
0.019359 0.884009 -0.029458 1.780156 2.005970 -1.473504 11.227006 -0.087144 -22.662987 -11.590916 3.275869 31.719277 7.098446 15.794505 9.077352 0.000000 0.000000 0.000000 -12.772170 -0.255975 -26.340861 8.291331 -2.364376 34.285564 -12.308992 -26.043714 18.689624 0.000000 0.000000 0.000000 7.257594 -4.929145 42.069003 -5.772464 1.942634 -27.854151 -6.873467 4.549185 24.292283 15.233775 -3.432016 -40.393897 0.000000 0.000000 0.000000 -6.031116 -31.543160 11.518755 -8.724843 -45.748570 -1.111841 21.455943 -21.103722 -3.486975 0.000000 0.000000 0.000000 20.318828 16.467133 9.551579 14.231531 54.815042 1.483560 -17.071192 16.476924 -1.539284 0.000000 0.000000 0.000000 
0.017173 0.880561 -0.028356 1.664945 2.159637 -1.681527 11.780202 0.010437 -23.324409 -11.999357 3.519846 33.255005 7.047459 15.708549 8.996257 0.000000 0.000000 0.000000 -12.779735 -0.287467 -26.741379 8.704097 -2.635720 35.532597 -12.497601 -26.351777 18.286546 0.000000 0.000000 0.000000 7.092089 -4.999745 42.904254 -5.728911 1.928833 -28.140289 -7.070405 4.277380 24.286824 15.266080 -3.495649 -40.364351 0.000000 0.000000 0.000000 -5.602830 -32.112979 11.659285 -7.050253 -47.266123 -1.659968 23.373341 -20.169353 -3.688626 0.000000 0.000000 0.000000 20.049043 16.799723 9.628790 13.490298 56.117914 1.284544 -18.082213 14.563407 -1.423148 0.000000 0.000000 0.000000 
0.015279 0.876966 -0.027170 1.576679 2.340837 -1.883654 12.265184 0.097527 -24.040167 -12.375150 3.760069 34.861224 6.989120 15.616921 8.962040 0.000000 0.000000 0.000000 -12.702281 -0.304397 -27.230514 8.881953 -2.827001 36.954228 -12.685213 -26.649339 17.979919 0.000000 0.000000 0.000000 7.016739 -5.127037 43.844268 -5.960980 1.980893 -28.153036 -7.248764 3.819718 24.116671 15.227394 -3.484149 -40.589261 0.000000 0.000000 0.000000 -4.453383 -32.923804 11.736982 -5.053610 -49.061701 -2.370538 24.590709 -18.553990 -3.594509 0.000000 0.000000 0.000000 19.139005 17.207867 9.570752 12.409594 57.401287 0.949614 -18.368172 12.610436 -1.212692 0.000000 0.000000 0.000000 
0.013772 0.872873 -0.026179 1.426804 2.553767 -2.267495 12.757810 0.189707 -24.504222 -12.705003 3.969918 36.368797 6.942611 15.508539 8.615158 0.000000 0.000000 0.000000 -12.642942 -0.332691 -27.675927 9.131868 -3.082217 38.606033 -12.862738 -26.908025 17.822351 0.000000 0.000000 0.000000 6.833312 -5.185135 44.585828 -5.765292 1.949449 -28.212261 -7.750145 3.485763 23.945545 15.140002 -3.500867 -40.463920 0.000000 0.000000 0.000000 -3.753268 -33.625514 11.833219 -3.155254 -50.388683 -3.099294 24.612120 -16.755540 -3.247820 0.000000 0.000000 0.000000 18.881013 17.550946 9.633161 11.028969 58.416813 0.392740 -18.904136 11.045765 -1.058792 0.000000 0.000000 0.000000 
0.012431 0.869025 -0.025591 1.340617 2.629316 -2.598393 13.267845 0.299055 -24.918599 -13.168177 4.259584 37.672928 6.933797 15.466427 8.396333 0.000000 0.000000 0.000000 -12.739618 -0.386471 -28.259453 9.517539 -3.392160 40.252876 -12.946906 -27.015633 17.869689 0.000000 0.000000 0.000000 6.551812 -5.189046 45.425936 -5.783452 1.954067 -28.323894 -7.831694 2.961602 23.781675 14.802336 -3.388479 -40.608609 0.000000 0.000000 0.000000 -2.715912 -34.367626 11.871764 -1.327887 -51.317936 -3.791259 23.979019 -14.496689 -2.718796 0.000000 0.000000 0.000000 17.931668 18.103840 9.605343 9.925639 59.597447 -0.037366 -18.826961 9.242754 -0.824971 0.000000 0.000000 0.000000 
0.011279 0.865080 -0.025273 1.208536 2.775145 -2.861875 13.725895 0.393141 -25.387002 -13.504449 4.479559 38.901028 6.926956 15.415962 8.037423 0.000000 0.000000 0.000000 -12.747453 -0.429122 -28.975348 9.787083 -3.681101 41.978768 -13.057378 -27.129410 18.123555 0.000000 0.000000 0.000000 6.536790 -5.264813 45.828266 -6.016777 1.998551 -28.585515 -8.117691 2.640198 23.978937 14.350107 -3.334606 -40.138690 0.000000 0.000000 0.000000 -1.803776 -34.626773 11.729359 -0.289002 -51.986335 -4.238934 24.250603 -13.203892 -2.514249 0.000000 0.000000 0.000000 17.623778 18.315119 9.587913 9.187050 60.608803 -0.383926 -19.279023 8.060828 -0.692145 0.000000 0.000000 0.000000 
0.010375 0.861006 -0.024937 1.139861 2.981176 -3.212254 14.203100 0.489193 -25.729938 -14.014832 4.769924 40.040655 6.893978 15.317414 7.655154 0.000000 0.000000 0.000000 -12.784666 -0.479165 -29.278953 9.960447 -3.910260 43.258192 -13.214436 -27.378271 17.853557 0.000000 0.000000 0.000000 6.410802 -5.274301 46.034436 -6.175516 2.039324 -28.535867 -8.146350 2.319974 23.707070 13.746976 -3.075938 -40.196222 0.000000 0.000000 0.000000 -1.855841 -34.833539 11.819587 -0.310001 -52.260310 -4.207630 24.766186 -12.479379 -2.435684 0.000000 0.000000 0.000000 17.383950 18.533726 9.589270 9.380520 61.123536 -0.236177 -19.350806 7.245219 -0.584791 0.000000 0.000000 0.000000 
0.009852 0.856746 -0.024367 1.081386 3.117842 -3.878484 14.499021 0.556741 -25.775108 -14.280970 4.967570 41.351653 6.882806 15.236897 7.201129 0.000000 0.000000 0.000000 -12.732482 -0.497043 -29.230221 9.945617 -4.030004 44.563107 -13.317209 -27.577367 17.408616 0.000000 0.000000 0.000000 6.262588 -5.202310 45.862275 -6.264101 2.071268 -28.374009 -8.215007 2.224844 23.679315 13.470290 -3.119409 -39.352107 0.000000 0.000000 0.000000 -1.768840 -34.689912 11.716807 -1.292130 -52.596059 -3.839513 25.772131 -12.023985 -2.465902 0.000000 0.000000 0.000000 17.131007 18.653848 9.581303 10.083376 61.448342 0.172261 -19.515958 6.913459 -0.547850 0.000000 0.000000 0.000000 
0.009665 0.852134 -0.023560 1.067243 3.361536 -4.622164 14.758073 0.610783 -25.914394 -14.609422 5.198069 42.918016 6.818796 15.089980 6.917175 0.000000 0.000000 0.000000 -12.822725 -0.558758 -28.940617 10.004534 -4.202964 45.710971 -13.454626 -27.867492 16.690320 0.000000 0.000000 0.000000 6.049592 -5.123263 45.715593 -6.517262 2.134840 -28.420769 -7.975443 2.133887 23.741347 13.341773 -3.253125 -38.430685 0.000000 0.000000 0.000000 -2.344014 -34.430813 11.739423 -3.350795 -52.570384 -3.013075 26.328075 -12.395857 -2.606048 0.000000 0.000000 0.000000 17.094201 18.680710 9.566915 11.402384 61.668114 0.883706 -19.596967 6.940384 -0.555886 0.000000 0.000000 0.000000 
0.009723 0.847692 -0.022784 1.064328 3.351180 -5.139185 15.199029 0.718004 -25.869917 -15.216824 5.586882 43.868229 6.879691 15.106365 6.324494 0.000000 0.000000 0.000000 -12.905931 -0.589635 -28.841540 10.082205 -4.319334 46.663422 -13.512819 -28.097549 15.781035 0.000000 0.000000 0.000000 5.802135 -4.921751 45.092654 -6.717202 2.197211 -28.117936 -7.882783 2.032852 23.549130 13.213045 -3.361941 -37.540381 0.000000 0.000000 0.000000 -2.827096 -33.806271 11.634120 -5.166733 -52.880253 -2.294987 26.482491 -12.264351 -2.587128 0.000000 0.000000 0.000000 16.687161 18.828104 9.525615 12.487054 61.959668 1.513307 -19.472550 7.440528 -0.625459 0.000000 0.000000 0.000000 
0.009895 0.843478 -0.021705 0.932765 3.384275 -6.049244 15.578225 0.814596 -25.685659 -15.497257 5.833785 45.309548 6.835453 14.987227 6.091620 0.000000 0.000000 0.000000 -12.850260 -0.583714 -28.209366 10.134321 -4.422187 47.502175 -13.559527 -28.317976 14.820638 0.000000 0.000000 0.000000 5.676038 -4.808393 44.694203 -6.781542 2.218932 -28.263641 -7.752907 2.313700 23.324220 13.377210 -3.568343 -36.720913 0.000000 0.000000 0.000000 -3.991172 -33.507340 11.750188 -7.548765 -52.507503 -1.352901 26.013076 -13.191064 -2.726715 0.000000 0.000000 0.000000 17.366543 18.574587 9.568111 13.476432 61.580192 2.020233 -18.851714 8.741422 -0.780665 0.000000 0.000000 0.000000 
0.010051 0.839532 -0.019896 0.912434 2.873881 -7.188800 16.064235 0.988954 -25.160669 -15.917830 6.318280 46.854501 6.850960 15.020428 6.425045 0.000000 0.000000 0.000000 -12.725068 -0.502919 -27.389293 10.069896 -4.303111 48.350503 -13.372294 -28.263062 13.550241 0.000000 0.000000 0.000000 5.426853 -4.518234 44.185666 -6.906906 2.249860 -28.484537 -7.516589 2.434274 23.435929 13.601436 -3.881150 -35.999341 0.000000 0.000000 0.000000 -4.631226 -32.737282 11.584619 -9.944096 -52.263832 -0.415116 25.253832 -13.417994 -2.674341 0.000000 0.000000 0.000000 17.787623 18.554256 9.578922 14.944451 61.845419 2.794837 -18.859658 9.914167 -0.946694 0.000000 0.000000 0.000000 
